<svg xmlns="http://www.w3.org/2000/svg" viewBox="0 0 516.6 529.74" style="padding: 6px; height: 75px;"><title>service-icon-light</title><g id="icon-service-hand"><g id="hand"><path d="M278.9,405.07l115.32-.59L483.49,311a32.88,32.88,0,0,1,45.65-1.86l2.17,1.94a34.46,34.46,0,0,1,4,47.26L431.24,488.63a70.41,70.41,0,0,1-55,26.46H158.29a112.69,112.69,0,0,0-54,13.77l-15.91,8.68" transform="translate(-33.27 -14.8)" style="fill: none; stroke: rgb(247, 177, 176); stroke-linecap: round; stroke-linejoin: round; stroke-width: 14px;"></path><path d="M349.5,333.88H261.84s-105.23-88.34-188,.17a109.62,109.62,0,0,1-23.49,19l-10.12,6.09" transform="translate(-33.27 -14.8)" style="fill: none; stroke: rgb(247, 177, 176); stroke-linecap: round; stroke-linejoin: round; stroke-width: 14px;"></path><path d="M349.5,334.07a35.34,35.34,0,1,1,0,70.67" transform="translate(-33.27 -14.8)" style="fill: none; stroke: rgb(247, 177, 176); stroke-linecap: round; stroke-linejoin: round; stroke-width: 14px;"></path><path d="M389.6,515.09" transform="translate(-33.27 -14.8)" style="fill: none; stroke: rgb(247, 177, 176); stroke-linecap: round; stroke-linejoin: round; stroke-width: 14px;"></path><path d="M160.26,515.09" transform="translate(-33.27 -14.8)" style="fill: none; stroke: rgb(247, 177, 176); stroke-linecap: round; stroke-linejoin: round; stroke-width: 14px;"></path></g><path d="M2.62,370.21" transform="translate(-33.27 -14.8)" style="fill: none; stroke: rgb(247, 177, 176); stroke-linecap: round; stroke-linejoin: round; stroke-width: 14px;"></path></g><g id="icon-star-lg"><g id="star"><rect x="326.3" y="65.3" width="40.93" height="80.54" rx="20.46" transform="translate(660.26 196.34) rotate(180)" style="fill: none; stroke: rgb(247, 177, 176); stroke-linecap: round; stroke-linejoin: round; stroke-width: 14px;"></rect><rect x="265.57" y="126.03" width="40.93" height="80.54" rx="20.46" transform="translate(419.06 -134.53) rotate(90)" style="fill: none; stroke: rgb(247, 177, 176); stroke-linecap: round; stroke-linejoin: round; stroke-width: 14px;"></rect><rect x="293.03" y="171.96" width="40.93" height="80.54" rx="20.46" style="fill: none; stroke: rgb(247, 177, 176); stroke-linecap: round; stroke-linejoin: round; stroke-width: 14px;"></rect><rect x="387.03" y="126.03" width="40.93" height="80.54" rx="20.46" transform="translate(207.93 559) rotate(-90)" style="fill: none; stroke: rgb(247, 177, 176); stroke-linecap: round; stroke-linejoin: round; stroke-width: 14px;"></rect></g></g><g id="icon-star-sm"><g id="star-sm"><rect x="235.53" y="14.8" width="20.46" height="40.27" rx="10.23" transform="translate(458.26 55.07) rotate(-180)" style="fill: rgb(247, 177, 176);"></rect><rect x="205.16" y="45.17" width="20.46" height="40.27" rx="10.23" transform="translate(247.43 -164.9) rotate(90)" style="fill: rgb(247, 177, 176);"></rect><rect x="202.26" y="60.73" width="20.46" height="40.27" rx="10.23" style="fill: rgb(247, 177, 176);"></rect><rect x="265.9" y="45.17" width="20.46" height="40.27" rx="10.23" transform="translate(177.56 326.63) rotate(-90)" style="fill: rgb(247, 177, 176);"></rect></g></g></svg>