<?xml version="1.0" encoding="UTF-8"?> <svg xmlns="http://www.w3.org/2000/svg" xmlns:xlink="http://www.w3.org/1999/xlink" version="1.1" id="Layer_1" x="0px" y="0px" width="113px" height="38px" viewBox="0 0 113 38" style="enable-background:new 0 0 113 38;" xml:space="preserve"> <style type="text/css"> .st0{fill:#56575E;} .st1{clip-path:url(#SVGID_00000081643059524893054530000010374666527670322875_);fill:#56575E;} .st2{clip-path:url(#SVGID_00000081643059524893054530000010374666527670322875_);fill:#E52675;} </style> <g> <polygon class="st0" points="2.2,1.1 2.2,24.7 14,24.7 14,22.4 4.5,22.4 4.5,1.1 "></polygon> <g> <defs> <rect id="SVGID_1_" x="2.2" y="1.1" width="109.4" height="36.8"></rect> </defs> <clipPath id="SVGID_00000022558432308028207410000001439299262484231350_"> <use href="#SVGID_1_" style="overflow:visible;"></use> </clipPath> <path style="clip-path:url(#SVGID_00000022558432308028207410000001439299262484231350_);fill:#56575E;" d="M60.4,10.9L58.6,12 c-1.5-2-3.6-3.1-6.3-3.1c-2.1,0-3.9,0.7-5.3,2.1c-1.4,1.4-2.1,3-2.1,5c0,1.3,0.3,2.5,1,3.6c0.6,1.1,1.5,2,2.7,2.6 c1.1,0.6,2.4,0.9,3.8,0.9c2.6,0,4.7-1,6.3-3.1l1.8,1.2c-0.8,1.3-2,2.2-3.4,2.9c-1.4,0.7-3,1-4.8,1c-2.8,0-5.1-0.9-6.9-2.6 s-2.7-3.9-2.7-6.4c0-1.7,0.4-3.3,1.3-4.7c0.9-1.4,2-2.6,3.5-3.4c1.5-0.8,3.2-1.2,5-1.2c1.2,0,2.3,0.2,3.3,0.5 c1.1,0.4,2,0.8,2.7,1.4C59.2,9.3,59.8,10,60.4,10.9"></path> <path style="clip-path:url(#SVGID_00000022558432308028207410000001439299262484231350_);fill:#56575E;" d="M75.6,6.8 c2.7,0,4.9,1,6.7,2.9c1.6,1.8,2.4,3.9,2.4,6.3c0,2.4-0.8,4.6-2.5,6.4c-1.7,1.8-3.9,2.7-6.6,2.7c-2.7,0-4.9-0.9-6.6-2.7 c-1.7-1.8-2.6-4-2.6-6.4c0-2.4,0.8-4.5,2.4-6.3C70.6,7.8,72.9,6.8,75.6,6.8 M75.6,9c-1.9,0-3.5,0.7-4.8,2.1c-1.3,1.4-2,3.1-2,5 c0,1.3,0.3,2.4,0.9,3.5c0.6,1.1,1.4,1.9,2.5,2.5c1,0.6,2.2,0.9,3.4,0.9c1.2,0,2.4-0.3,3.4-0.9c1-0.6,1.9-1.4,2.5-2.5 c0.6-1.1,0.9-2.3,0.9-3.5c0-2-0.7-3.6-2-5C79,9.7,77.4,9,75.6,9"></path> <path style="clip-path:url(#SVGID_00000022558432308028207410000001439299262484231350_);fill:#56575E;" d="M91.5,7.2h2.2v3.1 c0.9-1.2,1.9-2.1,3-2.7c1.1-0.6,2.3-0.9,3.6-0.9c1.3,0,2.5,0.3,3.5,1c1,0.7,1.8,1.6,2.2,2.7c0.5,1.1,0.7,2.9,0.7,5.3v9h-2.2v-8.3 c0-2-0.1-3.4-0.3-4c-0.3-1.2-0.8-2-1.5-2.6c-0.7-0.6-1.7-0.9-2.9-0.9c-1.4,0-2.6,0.4-3.7,1.3c-1.1,0.9-1.8,2-2.1,3.3 c-0.2,0.9-0.3,2.5-0.3,4.8v6.4h-2.2V7.2z"></path> <path style="clip-path:url(#SVGID_00000022558432308028207410000001439299262484231350_);fill:#E52675;" d="M38.4,9.5 C20,19.7,19.3,37.6,19.3,37.8l0,0l0,0c0,0,0,0,0,0c0,0,0,0,0,0l0.1,0c0,0,0,0,0-0.1l0,0c4.3-16.1,18.4-22.8,19-23.1l0,0V9.5 L38.4,9.5z"></path> <path style="clip-path:url(#SVGID_00000022558432308028207410000001439299262484231350_);fill:#E52675;" d="M25.6,19 c-2.2-5.6-7.3-6-7.4-6l-0.1,0l0,5.4l0.1,0c3.2-0.1,5.7,2.8,5.7,2.8l0.1,0.1L25.6,19L25.6,19z"></path> <path style="clip-path:url(#SVGID_00000022558432308028207410000001439299262484231350_);fill:#56575E;" d="M28.5,29.8 c-0.2-0.1-0.4-0.2-0.6-0.2c-0.2,0-0.4,0-0.6,0.1c-0.1,0.1-0.3,0.2-0.4,0.3c-0.1,0.1-0.2,0.3-0.2,0.5c0,0.2-0.1,0.4-0.1,0.5 c0,0.2,0,0.3,0.1,0.5c0,0.2,0.1,0.3,0.2,0.4c0.1,0.1,0.2,0.2,0.3,0.3c0.1,0.1,0.3,0.1,0.5,0.1c0.3,0,0.5-0.1,0.7-0.2 c0.2-0.2,0.3-0.4,0.3-0.7h0.6c-0.1,0.5-0.2,0.8-0.5,1.1c-0.3,0.2-0.6,0.4-1.1,0.4c-0.3,0-0.5,0-0.7-0.1c-0.2-0.1-0.4-0.2-0.5-0.4 c-0.1-0.2-0.3-0.4-0.3-0.6c-0.1-0.2-0.1-0.5-0.1-0.8c0-0.3,0-0.5,0.1-0.8c0.1-0.2,0.2-0.5,0.3-0.6c0.1-0.2,0.3-0.3,0.5-0.4 c0.2-0.1,0.5-0.2,0.8-0.2c0.2,0,0.4,0,0.6,0.1c0.2,0,0.3,0.1,0.5,0.2c0.1,0.1,0.3,0.2,0.3,0.4c0.1,0.2,0.1,0.3,0.2,0.6h-0.6 C28.8,30.1,28.7,29.9,28.5,29.8"></path> <path style="clip-path:url(#SVGID_00000022558432308028207410000001439299262484231350_);fill:#56575E;" d="M31.1,30.2 c0.1-0.2,0.2-0.4,0.3-0.6c0.2-0.2,0.3-0.3,0.6-0.4c0.2-0.1,0.5-0.1,0.8-0.1c0.3,0,0.6,0,0.8,0.1c0.2,0.1,0.4,0.2,0.6,0.4 c0.2,0.2,0.3,0.4,0.3,0.6c0.1,0.2,0.1,0.5,0.1,0.8c0,0.3,0,0.5-0.1,0.8c-0.1,0.2-0.2,0.4-0.3,0.6c-0.2,0.2-0.3,0.3-0.6,0.4 c-0.2,0.1-0.5,0.1-0.8,0.1c-0.3,0-0.5,0-0.8-0.1c-0.2-0.1-0.4-0.2-0.6-0.4c-0.2-0.2-0.3-0.4-0.3-0.6C31.1,31.5,31,31.3,31,31 C31,30.7,31.1,30.5,31.1,30.2 M31.8,31.6c0.1,0.2,0.1,0.3,0.2,0.4c0.1,0.1,0.2,0.2,0.4,0.3c0.1,0.1,0.3,0.1,0.4,0.1 c0.2,0,0.3,0,0.4-0.1c0.1-0.1,0.3-0.2,0.4-0.3c0.1-0.1,0.2-0.3,0.2-0.4c0.1-0.2,0.1-0.4,0.1-0.6c0-0.2,0-0.4-0.1-0.6 c-0.1-0.2-0.1-0.3-0.2-0.4c-0.1-0.1-0.2-0.2-0.4-0.3c-0.1-0.1-0.3-0.1-0.4-0.1c-0.2,0-0.3,0-0.4,0.1c-0.1,0.1-0.3,0.2-0.4,0.3 c-0.1,0.1-0.2,0.3-0.2,0.4s-0.1,0.4-0.1,0.6C31.7,31.2,31.7,31.4,31.8,31.6"></path> <path style="clip-path:url(#SVGID_00000022558432308028207410000001439299262484231350_);fill:#56575E;" d="M36.9,32 c0.1,0.1,0.1,0.2,0.2,0.2c0.1,0.1,0.2,0.1,0.3,0.1c0.1,0,0.2,0,0.4,0c0.1,0,0.2,0,0.3,0c0.1,0,0.2,0,0.3-0.1 c0.1,0,0.2-0.1,0.2-0.2c0.1-0.1,0.1-0.2,0.1-0.3c0-0.2-0.1-0.3-0.2-0.4c-0.1-0.1-0.3-0.1-0.4-0.2c-0.2,0-0.4-0.1-0.6-0.1 c-0.2,0-0.4-0.1-0.6-0.2c-0.2-0.1-0.3-0.2-0.4-0.3c-0.1-0.1-0.2-0.3-0.2-0.6c0-0.2,0-0.3,0.1-0.5c0.1-0.1,0.2-0.2,0.3-0.3 c0.1-0.1,0.3-0.1,0.4-0.2c0.2,0,0.3-0.1,0.5-0.1c0.2,0,0.4,0,0.6,0.1c0.2,0,0.3,0.1,0.5,0.2c0.1,0.1,0.2,0.2,0.3,0.4 c0.1,0.1,0.1,0.3,0.1,0.6h-0.6c0-0.1,0-0.2-0.1-0.3c-0.1-0.1-0.1-0.1-0.2-0.2c-0.1,0-0.2-0.1-0.3-0.1c-0.1,0-0.2,0-0.3,0 c-0.1,0-0.2,0-0.3,0c-0.1,0-0.2,0-0.3,0.1c-0.1,0-0.1,0.1-0.2,0.1c0,0.1-0.1,0.1-0.1,0.2c0,0.1,0,0.2,0.1,0.3 c0.1,0.1,0.2,0.1,0.3,0.2c0.1,0,0.2,0.1,0.4,0.1c0.1,0,0.3,0.1,0.4,0.1c0.2,0,0.3,0.1,0.4,0.1c0.1,0,0.3,0.1,0.4,0.2 s0.2,0.2,0.3,0.3c0.1,0.1,0.1,0.3,0.1,0.4c0,0.2,0,0.4-0.1,0.6c-0.1,0.1-0.2,0.3-0.4,0.4c-0.1,0.1-0.3,0.2-0.5,0.2 c-0.2,0-0.4,0.1-0.6,0.1c-0.2,0-0.4,0-0.6-0.1c-0.2,0-0.4-0.1-0.5-0.2c-0.1-0.1-0.3-0.2-0.3-0.4c-0.1-0.2-0.1-0.4-0.1-0.6h0.6 C36.8,31.8,36.8,31.9,36.9,32"></path> <path style="clip-path:url(#SVGID_00000022558432308028207410000001439299262484231350_);fill:#56575E;" d="M41.7,29.2v0.5h0 c0.3-0.4,0.7-0.6,1.2-0.6c0.2,0,0.4,0,0.6,0.1c0.2,0.1,0.3,0.3,0.4,0.5c0.1-0.2,0.3-0.4,0.5-0.5c0.2-0.1,0.4-0.2,0.7-0.2 c0.2,0,0.4,0,0.5,0.1c0.1,0,0.3,0.1,0.4,0.2c0.1,0.1,0.2,0.2,0.3,0.3c0.1,0.1,0.1,0.3,0.1,0.5v2.7h-0.6v-2.4c0-0.1,0-0.2,0-0.3 c0-0.1-0.1-0.2-0.1-0.3c-0.1-0.1-0.1-0.1-0.2-0.2c-0.1,0-0.2-0.1-0.4-0.1c-0.3,0-0.5,0.1-0.7,0.3C44.1,30,44,30.3,44,30.5v2.3 h-0.6v-2.4c0-0.1,0-0.2,0-0.3c0-0.1-0.1-0.2-0.1-0.3c-0.1-0.1-0.1-0.1-0.2-0.2c-0.1,0-0.2-0.1-0.3-0.1c-0.2,0-0.3,0-0.5,0.1 c-0.1,0.1-0.2,0.2-0.3,0.3c-0.1,0.1-0.1,0.2-0.2,0.3c0,0.1-0.1,0.2-0.1,0.3v2.3h-0.6v-3.7H41.7z"></path> <path style="clip-path:url(#SVGID_00000022558432308028207410000001439299262484231350_);fill:#56575E;" d="M50.9,32.6 c-0.3,0.2-0.6,0.3-1,0.3c-0.3,0-0.6,0-0.8-0.1c-0.2-0.1-0.4-0.2-0.5-0.4c-0.1-0.2-0.3-0.4-0.3-0.6c-0.1-0.2-0.1-0.5-0.1-0.8 c0-0.3,0-0.5,0.1-0.8c0.1-0.2,0.2-0.4,0.4-0.6c0.2-0.2,0.3-0.3,0.6-0.4c0.2-0.1,0.4-0.1,0.7-0.1c0.3,0,0.6,0.1,0.8,0.2 c0.2,0.1,0.4,0.3,0.5,0.5c0.1,0.2,0.2,0.4,0.3,0.7c0.1,0.2,0.1,0.5,0.1,0.7h-2.8c0,0.2,0,0.3,0.1,0.5c0,0.1,0.1,0.3,0.2,0.4 c0.1,0.1,0.2,0.2,0.4,0.3c0.1,0.1,0.3,0.1,0.5,0.1c0.3,0,0.5-0.1,0.6-0.2c0.2-0.1,0.3-0.3,0.3-0.5h0.6 C51.3,32.1,51.2,32.4,50.9,32.6 M50.7,30.2c-0.1-0.1-0.1-0.2-0.2-0.3c-0.1-0.1-0.2-0.2-0.3-0.2c-0.1-0.1-0.3-0.1-0.4-0.1 c-0.2,0-0.3,0-0.4,0.1c-0.1,0.1-0.2,0.1-0.3,0.2c-0.1,0.1-0.2,0.2-0.2,0.3c-0.1,0.1-0.1,0.3-0.1,0.4h2.1 C50.8,30.5,50.8,30.4,50.7,30.2"></path> <path style="clip-path:url(#SVGID_00000022558432308028207410000001439299262484231350_);fill:#56575E;" d="M54.8,29.2v0.5h-0.7 V32c0,0.1,0,0.1,0,0.2c0,0,0,0.1,0.1,0.1c0,0,0.1,0,0.1,0c0.1,0,0.1,0,0.2,0h0.3v0.5h-0.5c-0.2,0-0.3,0-0.4,0 c-0.1,0-0.2-0.1-0.3-0.1c-0.1-0.1-0.1-0.1-0.2-0.2c0-0.1,0-0.2,0-0.4v-2.4h-0.6v-0.5h0.6V28h0.6v1.1H54.8z"></path> <path style="clip-path:url(#SVGID_00000022558432308028207410000001439299262484231350_);fill:#56575E;" d="M56.6,27.7h0.6v0.7 h-0.6V27.7z M57.3,32.8h-0.6v-3.7h0.6V32.8z"></path> <path style="clip-path:url(#SVGID_00000022558432308028207410000001439299262484231350_);fill:#56575E;" d="M61.5,29.8 c-0.2-0.1-0.4-0.2-0.6-0.2c-0.2,0-0.4,0-0.6,0.1C60.2,29.8,60,29.9,60,30c-0.1,0.1-0.2,0.3-0.2,0.5c0,0.2-0.1,0.4-0.1,0.5 c0,0.2,0,0.3,0.1,0.5c0,0.2,0.1,0.3,0.2,0.4c0.1,0.1,0.2,0.2,0.3,0.3c0.1,0.1,0.3,0.1,0.5,0.1c0.3,0,0.5-0.1,0.7-0.2 c0.2-0.2,0.3-0.4,0.3-0.7h0.6c-0.1,0.5-0.2,0.8-0.5,1.1c-0.3,0.2-0.6,0.4-1.1,0.4c-0.3,0-0.5,0-0.7-0.1c-0.2-0.1-0.4-0.2-0.5-0.4 c-0.1-0.2-0.3-0.4-0.3-0.6c-0.1-0.2-0.1-0.5-0.1-0.8c0-0.3,0-0.5,0.1-0.8c0.1-0.2,0.2-0.5,0.3-0.6c0.1-0.2,0.3-0.3,0.5-0.4 c0.2-0.1,0.5-0.2,0.8-0.2c0.2,0,0.4,0,0.6,0.1c0.2,0,0.3,0.1,0.5,0.2c0.1,0.1,0.3,0.2,0.3,0.4c0.1,0.2,0.1,0.3,0.2,0.6h-0.6 C61.7,30.1,61.6,29.9,61.5,29.8"></path> <path style="clip-path:url(#SVGID_00000022558432308028207410000001439299262484231350_);fill:#56575E;" d="M64.7,32 c0.1,0.1,0.1,0.2,0.2,0.2c0.1,0.1,0.2,0.1,0.3,0.1c0.1,0,0.2,0,0.4,0c0.1,0,0.2,0,0.3,0c0.1,0,0.2,0,0.3-0.1 c0.1,0,0.2-0.1,0.2-0.2c0.1-0.1,0.1-0.2,0.1-0.3c0-0.2-0.1-0.3-0.2-0.4c-0.1-0.1-0.3-0.1-0.4-0.2c-0.2,0-0.4-0.1-0.6-0.1 c-0.2,0-0.4-0.1-0.6-0.2c-0.2-0.1-0.3-0.2-0.4-0.3c-0.1-0.1-0.2-0.3-0.2-0.6c0-0.2,0-0.3,0.1-0.5c0.1-0.1,0.2-0.2,0.3-0.3 c0.1-0.1,0.3-0.1,0.4-0.2c0.2,0,0.3-0.1,0.5-0.1c0.2,0,0.4,0,0.6,0.1c0.2,0,0.3,0.1,0.5,0.2c0.1,0.1,0.2,0.2,0.3,0.4 c0.1,0.1,0.1,0.3,0.1,0.6h-0.6c0-0.1,0-0.2-0.1-0.3c-0.1-0.1-0.1-0.1-0.2-0.2c-0.1,0-0.2-0.1-0.3-0.1c-0.1,0-0.2,0-0.3,0 c-0.1,0-0.2,0-0.3,0c-0.1,0-0.2,0-0.3,0.1c-0.1,0-0.1,0.1-0.2,0.1c0,0.1-0.1,0.1-0.1,0.2c0,0.1,0,0.2,0.1,0.3 c0.1,0.1,0.2,0.1,0.3,0.2c0.1,0,0.2,0.1,0.4,0.1c0.1,0,0.3,0.1,0.4,0.1c0.2,0,0.3,0.1,0.4,0.1c0.1,0,0.3,0.1,0.4,0.2 c0.1,0.1,0.2,0.2,0.3,0.3c0.1,0.1,0.1,0.3,0.1,0.4c0,0.2,0,0.4-0.1,0.6c-0.1,0.1-0.2,0.3-0.4,0.4s-0.3,0.2-0.5,0.2 c-0.2,0-0.4,0.1-0.6,0.1c-0.2,0-0.4,0-0.6-0.1c-0.2,0-0.4-0.1-0.5-0.2c-0.1-0.1-0.3-0.2-0.3-0.4C64,32.1,64,31.9,64,31.7h0.6 C64.6,31.8,64.6,31.9,64.7,32"></path> <rect x="69.3" y="28.1" style="clip-path:url(#SVGID_00000022558432308028207410000001439299262484231350_);fill:#E52675;" width="0.5" height="5.7"></rect> <path style="clip-path:url(#SVGID_00000022558432308028207410000001439299262484231350_);fill:#56575E;" d="M75,32.9 c-0.2,0-0.3,0-0.4-0.1c-0.1-0.1-0.1-0.2-0.1-0.4c-0.2,0.2-0.4,0.3-0.6,0.4c-0.2,0.1-0.5,0.1-0.7,0.1c-0.2,0-0.3,0-0.5-0.1 c-0.1,0-0.3-0.1-0.4-0.2c-0.1-0.1-0.2-0.2-0.3-0.3c-0.1-0.1-0.1-0.3-0.1-0.5c0-0.2,0-0.4,0.1-0.5c0.1-0.1,0.2-0.2,0.3-0.3 c0.1-0.1,0.3-0.1,0.4-0.2c0.2,0,0.3-0.1,0.5-0.1c0.2,0,0.3-0.1,0.5-0.1c0.1,0,0.3,0,0.4-0.1c0.1,0,0.2-0.1,0.3-0.1 c0.1-0.1,0.1-0.1,0.1-0.3c0-0.1,0-0.2-0.1-0.3c0-0.1-0.1-0.1-0.2-0.2c-0.1,0-0.2-0.1-0.3-0.1c-0.1,0-0.2,0-0.3,0 c-0.3,0-0.5,0-0.6,0.1c-0.2,0.1-0.3,0.3-0.3,0.6h-0.6c0-0.2,0.1-0.4,0.1-0.6c0.1-0.2,0.2-0.3,0.3-0.4c0.1-0.1,0.3-0.2,0.5-0.2 s0.4-0.1,0.6-0.1c0.2,0,0.3,0,0.5,0c0.2,0,0.3,0.1,0.4,0.1c0.1,0.1,0.2,0.2,0.3,0.3c0.1,0.1,0.1,0.3,0.1,0.5V32c0,0.1,0,0.2,0,0.3 c0,0.1,0.1,0.1,0.2,0.1c0.1,0,0.1,0,0.2,0v0.5C75.3,32.9,75.2,32.9,75,32.9 M74.1,31.1c-0.1,0-0.3,0-0.4,0.1c-0.1,0-0.3,0-0.4,0.1 c-0.1,0-0.3,0.1-0.4,0.1c-0.1,0-0.2,0.1-0.3,0.2c-0.1,0.1-0.1,0.2-0.1,0.4c0,0.1,0,0.2,0.1,0.3c0,0.1,0.1,0.1,0.2,0.2 c0.1,0,0.1,0.1,0.2,0.1c0.1,0,0.2,0,0.3,0c0.2,0,0.4,0,0.5-0.1c0.1-0.1,0.3-0.1,0.4-0.2c0.1-0.1,0.2-0.2,0.2-0.3 c0-0.1,0.1-0.2,0.1-0.3v-0.6C74.3,31,74.2,31,74.1,31.1"></path> <path style="clip-path:url(#SVGID_00000022558432308028207410000001439299262484231350_);fill:#56575E;" d="M79.6,32.8v-0.6h0 c-0.1,0.2-0.3,0.4-0.5,0.5c-0.2,0.1-0.4,0.2-0.7,0.2c-0.2,0-0.4,0-0.6-0.1c-0.2-0.1-0.3-0.2-0.4-0.3c-0.1-0.1-0.2-0.3-0.2-0.4 c0-0.2-0.1-0.3-0.1-0.5v-2.4h0.6v2.5c0,0.2,0.1,0.4,0.2,0.5c0.1,0.1,0.3,0.2,0.6,0.2c0.2,0,0.3,0,0.5-0.1c0.1-0.1,0.2-0.1,0.3-0.2 c0.1-0.1,0.2-0.2,0.2-0.4c0-0.1,0.1-0.3,0.1-0.5v-2.1h0.6v3.7H79.6z"></path> <path style="clip-path:url(#SVGID_00000022558432308028207410000001439299262484231350_);fill:#56575E;" d="M82.6,32 c0.1,0.1,0.1,0.2,0.2,0.2c0.1,0.1,0.2,0.1,0.3,0.1c0.1,0,0.2,0,0.4,0c0.1,0,0.2,0,0.3,0c0.1,0,0.2,0,0.3-0.1 c0.1,0,0.2-0.1,0.2-0.2c0.1-0.1,0.1-0.2,0.1-0.3c0-0.2-0.1-0.3-0.2-0.4c-0.1-0.1-0.3-0.1-0.4-0.2c-0.2,0-0.4-0.1-0.6-0.1 c-0.2,0-0.4-0.1-0.6-0.2c-0.2-0.1-0.3-0.2-0.4-0.3C82,30.5,82,30.4,82,30.1c0-0.2,0-0.3,0.1-0.5c0.1-0.1,0.2-0.2,0.3-0.3 c0.1-0.1,0.3-0.1,0.4-0.2c0.2,0,0.3-0.1,0.5-0.1c0.2,0,0.4,0,0.6,0.1c0.2,0,0.3,0.1,0.5,0.2c0.1,0.1,0.2,0.2,0.3,0.4 c0.1,0.1,0.1,0.3,0.1,0.6h-0.6c0-0.1,0-0.2-0.1-0.3c-0.1-0.1-0.1-0.1-0.2-0.2c-0.1,0-0.2-0.1-0.3-0.1c-0.1,0-0.2,0-0.3,0 c-0.1,0-0.2,0-0.3,0c-0.1,0-0.2,0-0.3,0.1c-0.1,0-0.1,0.1-0.2,0.1c0,0.1-0.1,0.1-0.1,0.2c0,0.1,0,0.2,0.1,0.3 c0.1,0.1,0.2,0.1,0.3,0.2c0.1,0,0.2,0.1,0.4,0.1c0.1,0,0.3,0.1,0.4,0.1c0.2,0,0.3,0.1,0.4,0.1c0.1,0,0.3,0.1,0.4,0.2 c0.1,0.1,0.2,0.2,0.3,0.3c0.1,0.1,0.1,0.3,0.1,0.4c0,0.2,0,0.4-0.1,0.6c-0.1,0.1-0.2,0.3-0.4,0.4s-0.3,0.2-0.5,0.2 c-0.2,0-0.4,0.1-0.6,0.1c-0.2,0-0.4,0-0.6-0.1c-0.2,0-0.4-0.1-0.5-0.2c-0.1-0.1-0.3-0.2-0.3-0.4c-0.1-0.2-0.1-0.4-0.1-0.6h0.6 C82.5,31.8,82.5,31.9,82.6,32"></path> <path style="clip-path:url(#SVGID_00000022558432308028207410000001439299262484231350_);fill:#56575E;" d="M88.3,29.2v0.5h-0.7 V32c0,0.1,0,0.1,0,0.2c0,0,0,0.1,0.1,0.1c0,0,0.1,0,0.1,0c0.1,0,0.1,0,0.2,0h0.3v0.5h-0.5c-0.2,0-0.3,0-0.4,0 c-0.1,0-0.2-0.1-0.3-0.1c-0.1-0.1-0.1-0.1-0.2-0.2c0-0.1,0-0.2,0-0.4v-2.4h-0.6v-0.5h0.6V28h0.6v1.1H88.3z"></path> <path style="clip-path:url(#SVGID_00000022558432308028207410000001439299262484231350_);fill:#56575E;" d="M90.7,29.2v0.8h0 c0.1-0.3,0.3-0.5,0.5-0.7c0.2-0.1,0.5-0.2,0.8-0.2v0.6c-0.2,0-0.4,0-0.6,0.1c-0.2,0.1-0.3,0.2-0.4,0.3c-0.1,0.1-0.2,0.3-0.2,0.5 c0,0.2-0.1,0.4-0.1,0.6v1.6h-0.6v-3.7H90.7z"></path> <path style="clip-path:url(#SVGID_00000022558432308028207410000001439299262484231350_);fill:#56575E;" d="M96.3,32.9 c-0.2,0-0.3,0-0.4-0.1c-0.1-0.1-0.1-0.2-0.1-0.4c-0.2,0.2-0.4,0.3-0.6,0.4c-0.2,0.1-0.5,0.1-0.7,0.1c-0.2,0-0.3,0-0.5-0.1 c-0.1,0-0.3-0.1-0.4-0.2c-0.1-0.1-0.2-0.2-0.3-0.3c-0.1-0.1-0.1-0.3-0.1-0.5c0-0.2,0-0.4,0.1-0.5c0.1-0.1,0.2-0.2,0.3-0.3 c0.1-0.1,0.2-0.1,0.4-0.2c0.2,0,0.3-0.1,0.5-0.1c0.2,0,0.3-0.1,0.5-0.1c0.1,0,0.3,0,0.4-0.1c0.1,0,0.2-0.1,0.3-0.1 c0.1-0.1,0.1-0.1,0.1-0.3c0-0.1,0-0.2-0.1-0.3c-0.1-0.1-0.1-0.1-0.2-0.2c-0.1,0-0.2-0.1-0.3-0.1c-0.1,0-0.2,0-0.3,0 c-0.3,0-0.5,0-0.6,0.1c-0.2,0.1-0.3,0.3-0.3,0.6h-0.6c0-0.2,0.1-0.4,0.1-0.6c0.1-0.2,0.2-0.3,0.3-0.4c0.1-0.1,0.3-0.2,0.5-0.2 c0.2,0,0.4-0.1,0.6-0.1c0.2,0,0.3,0,0.5,0c0.2,0,0.3,0.1,0.4,0.1c0.1,0.1,0.2,0.2,0.3,0.3c0.1,0.1,0.1,0.3,0.1,0.5V32 c0,0.1,0,0.2,0,0.3c0,0.1,0.1,0.1,0.2,0.1c0.1,0,0.1,0,0.2,0v0.5C96.7,32.9,96.5,32.9,96.3,32.9 M95.5,31.1c-0.1,0-0.3,0-0.4,0.1 c-0.1,0-0.3,0-0.4,0.1c-0.1,0-0.3,0.1-0.4,0.1c-0.1,0-0.2,0.1-0.3,0.2c-0.1,0.1-0.1,0.2-0.1,0.4c0,0.1,0,0.2,0.1,0.3 c0,0.1,0.1,0.1,0.2,0.2c0.1,0,0.1,0.1,0.2,0.1c0.1,0,0.2,0,0.3,0c0.2,0,0.4,0,0.5-0.1c0.1-0.1,0.3-0.1,0.4-0.2 c0.1-0.1,0.2-0.2,0.2-0.3c0-0.1,0.1-0.2,0.1-0.3v-0.6C95.7,31,95.6,31,95.5,31.1"></path> <rect x="98.5" y="27.7" style="clip-path:url(#SVGID_00000022558432308028207410000001439299262484231350_);fill:#56575E;" width="0.6" height="5.1"></rect> <path style="clip-path:url(#SVGID_00000022558432308028207410000001439299262484231350_);fill:#56575E;" d="M101.2,27.7h0.6v0.7 h-0.6V27.7z M101.8,32.8h-0.6v-3.7h0.6V32.8z"></path> <path style="clip-path:url(#SVGID_00000022558432308028207410000001439299262484231350_);fill:#56575E;" d="M106.6,32.9 c-0.2,0-0.3,0-0.4-0.1c-0.1-0.1-0.1-0.2-0.1-0.4c-0.2,0.2-0.4,0.3-0.6,0.4c-0.2,0.1-0.5,0.1-0.7,0.1c-0.2,0-0.3,0-0.5-0.1 c-0.1,0-0.3-0.1-0.4-0.2c-0.1-0.1-0.2-0.2-0.3-0.3c-0.1-0.1-0.1-0.3-0.1-0.5c0-0.2,0-0.4,0.1-0.5c0.1-0.1,0.2-0.2,0.3-0.3 c0.1-0.1,0.2-0.1,0.4-0.2c0.2,0,0.3-0.1,0.5-0.1c0.2,0,0.3-0.1,0.5-0.1c0.1,0,0.3,0,0.4-0.1c0.1,0,0.2-0.1,0.3-0.1 c0.1-0.1,0.1-0.1,0.1-0.3c0-0.1,0-0.2-0.1-0.3c0-0.1-0.1-0.1-0.2-0.2c-0.1,0-0.2-0.1-0.3-0.1c-0.1,0-0.2,0-0.3,0 c-0.3,0-0.5,0-0.6,0.1c-0.2,0.1-0.3,0.3-0.3,0.6h-0.6c0-0.2,0.1-0.4,0.1-0.6c0.1-0.2,0.2-0.3,0.3-0.4c0.1-0.1,0.3-0.2,0.5-0.2 c0.2,0,0.4-0.1,0.6-0.1c0.2,0,0.3,0,0.5,0c0.2,0,0.3,0.1,0.4,0.1c0.1,0.1,0.2,0.2,0.3,0.3c0.1,0.1,0.1,0.3,0.1,0.5V32 c0,0.1,0,0.2,0,0.3c0,0.1,0.1,0.1,0.2,0.1c0.1,0,0.1,0,0.2,0v0.5C106.9,32.9,106.8,32.9,106.6,32.9 M105.7,31.1 c-0.1,0-0.3,0-0.4,0.1c-0.1,0-0.3,0-0.4,0.1c-0.1,0-0.3,0.1-0.4,0.1c-0.1,0-0.2,0.1-0.3,0.2c-0.1,0.1-0.1,0.2-0.1,0.4 c0,0.1,0,0.2,0.1,0.3c0,0.1,0.1,0.1,0.2,0.2c0.1,0,0.1,0.1,0.2,0.1c0.1,0,0.2,0,0.3,0c0.2,0,0.4,0,0.5-0.1 c0.1-0.1,0.3-0.1,0.4-0.2c0.1-0.1,0.2-0.2,0.2-0.3c0-0.1,0.1-0.2,0.1-0.3v-0.6C106,31,105.9,31,105.7,31.1"></path> </g> </g> </svg> 